HIERARCHY
ROOT Hips
{
	OFFSET 52.366199 -31.631016 95.734795
	CHANNELS 6 Xposition Yposition Zposition Xrotation Yrotation Zrotation
	JOINT spine
	{
		OFFSET 0.000000 -0.458069 7.965683
		CHANNELS 3 Xrotation Yrotation Zrotation
		JOINT spine1
		{
			OFFSET 0.000000 -0.000004 10.243103
			CHANNELS 3 Xrotation Yrotation Zrotation
			JOINT spine2
			{
				OFFSET 0.000000 0.000000 9.814751
				CHANNELS 3 Xrotation Yrotation Zrotation
				JOINT Neck
				{
					OFFSET 0.000000 -1.201385 25.198608
					CHANNELS 3 Xrotation Yrotation Zrotation
					JOINT Head
					{
						OFFSET 0.000000 -0.000004 7.613144
						CHANNELS 3 Xrotation Yrotation Zrotation
						End Site
						{
							OFFSET 0.000000 6.077328 18.428101
						}
					}
				}
				JOINT RightShoulder
				{
					OFFSET -4.132702 0.575449 10.599213
					CHANNELS 3 Xrotation Yrotation Zrotation
					JOINT RightArm
					{
						OFFSET 0.000000 -0.000004 13.901794
						CHANNELS 3 Xrotation Yrotation Zrotation
						JOINT RightArmRoll
						{
							OFFSET 0.000000 0.000000 7.017883
							CHANNELS 3 Xrotation Yrotation Zrotation
							JOINT RightForeArm
							{
								OFFSET 0.000000 -0.000004 20.440598
								CHANNELS 3 Xrotation Yrotation Zrotation
								JOINT RightForeArmRoll
								{
									OFFSET 0.000000 -0.000002 7.875168
									CHANNELS 3 Xrotation Yrotation Zrotation
									JOINT RightHand
									{
										OFFSET 0.000000 -0.000002 15.803696
										CHANNELS 3 Xrotation Yrotation Zrotation
										End Site
										{
											OFFSET 0.000000 0.000000 0.100006
										}
									}
								}
							}
						}
					}
				}
				JOINT LeftShoulder
				{
					OFFSET 4.132702 0.575449 10.599213
					CHANNELS 3 Xrotation Yrotation Zrotation
					JOINT LeftArm
					{
						OFFSET 0.000000 -0.000004 13.901794
						CHANNELS 3 Xrotation Yrotation Zrotation
						JOINT LeftArmRoll
						{
							OFFSET 0.000000 0.000000 7.017883
							CHANNELS 3 Xrotation Yrotation Zrotation
							JOINT LeftForeArm
							{
								OFFSET 0.000000 -0.000004 20.440598
								CHANNELS 3 Xrotation Yrotation Zrotation
								JOINT LeftForeArmRoll
								{
									OFFSET 0.000000 -0.000002 7.875168
									CHANNELS 3 Xrotation Yrotation Zrotation
									JOINT LeftHand
									{
										OFFSET 0.000000 -0.000002 15.803696
										CHANNELS 3 Xrotation Yrotation Zrotation
										End Site
										{
											OFFSET 0.000000 0.000000 0.100006
										}
									}
								}
							}
						}
					}
				}
			}
		}
	}
	JOINT RightUpLeg
	{
		OFFSET -7.060482 1.086100 -1.294701
		CHANNELS 3 Xrotation Yrotation Zrotation
		JOINT RightUpLegRoll
		{
			OFFSET 0.000000 -0.000004 18.530800
			CHANNELS 3 Xrotation Yrotation Zrotation
			JOINT RightLeg
			{
				OFFSET 0.000000 0.000004 -22.947601
				CHANNELS 3 Xrotation Yrotation Zrotation
				JOINT RightLegRoll
				{
					OFFSET 0.000000 -0.000004 23.022598
					CHANNELS 3 Xrotation Yrotation Zrotation
					JOINT RightFoot
					{
						OFFSET 0.000000 -0.000002 19.162514
						CHANNELS 3 Xrotation Yrotation Zrotation
						JOINT RightToeBase
						{
							OFFSET 0.000000 -0.000004 16.018799
							CHANNELS 3 Xrotation Yrotation Zrotation
							End Site
							{
								OFFSET 0.006790 0.894207 7.757812
							}
						}
					}
				}
			}
		}
	}
	JOINT LeftUpLeg
	{
		OFFSET 7.060482 1.086100 -1.294701
		CHANNELS 3 Xrotation Yrotation Zrotation
		JOINT LeftUpLegRoll
		{
			OFFSET 0.000000 -0.000004 18.530899
			CHANNELS 3 Xrotation Yrotation Zrotation
			JOINT LeftLeg
			{
				OFFSET 0.000000 -0.000004 22.947510
				CHANNELS 3 Xrotation Yrotation Zrotation
				JOINT LeftLegRoll
				{
					OFFSET 0.000000 -0.000004 23.235504
					CHANNELS 3 Xrotation Yrotation Zrotation
					JOINT LeftFoot
					{
						OFFSET 0.000000 -0.000002 18.949600
						CHANNELS 3 Xrotation Yrotation Zrotation
						JOINT LeftToeBase
						{
							OFFSET 0.000000 -0.000004 16.018799
							CHANNELS 3 Xrotation Yrotation Zrotation
							End Site
							{
								OFFSET -0.030430 0.894207 7.757812
							}
						}
					}
				}
			}
		}
	}
}
MOTION
Frames: 8
Frame Time: 0.041667
50.713600 11.499687 56.705505 -3.142277 -2.190025 9.658942 0.637938 0.248189 -0.233678 5.272164 0.490847 -0.472838 6.917250 0.485149 -0.478684 4.442684 1.046817 -2.682338 4.890724 -1.843658 -2.581751 -5.324156 -64.851731 -6.806354 -59.459993 -132.591239 -62.349054 -0.000000 -0.000001 -0.000001 36.468255 -11.320902 2.274684 0.000001 0.000002 -3.001770 -4.999922 -7.998728 0.000107 -4.608777 68.209520 6.286083 -61.392896 135.658704 66.708149 -0.000002 0.000000 0.000000 33.860280 11.968525 -2.831948 0.000007 -0.000005 3.007770 -5.000121 7.998724 -0.000148 -83.072347 -167.164741 -3.041936 179.999991 0.000005 -0.947998 95.952642 5.947103 0.770519 -0.000002 -0.000001 1.094610 61.694872 3.854135 9.136406 25.457703 -7.354707 0.001123 -82.302516 175.644530 0.272550 -0.000005 -0.000004 -1.245980 -83.052669 -3.281753 0.204960 -0.000004 0.000006 -1.580550 61.460241 -4.929948 -6.802795 25.456890 7.354547 0.000001 
50.716095 11.500492 56.703892 -3.124190 -2.187817 9.659914 0.636415 0.248727 -0.234009 5.268905 0.491444 -0.473800 6.913981 0.485735 -0.479650 4.450573 1.040156 -2.678665 4.891965 -1.831498 -2.578902 -5.326195 -64.847448 -6.808288 -59.449639 -132.590323 -62.350434 0.000000 0.000000 -0.000000 36.484046 -11.322513 2.275605 0.000002 0.000001 -3.001771 -4.999919 -7.998729 0.000107 -4.626134 68.208926 6.305468 -61.384119 135.649401 66.711537 -0.000000 -0.000000 0.000000 33.892116 11.971045 -2.834858 0.000007 -0.000005 3.007770 -5.000122 7.998723 -0.000149 -83.091574 -167.167610 -3.044494 179.999991 0.000005 -0.947001 95.951679 5.946360 0.770594 -0.000002 -0.000002 1.094580 61.695699 3.854217 9.135815 25.457705 -7.354708 0.001123 -82.320302 175.648696 0.273011 -0.000005 -0.000004 -1.245360 -83.053010 -3.281770 0.205451 -0.000004 0.000005 -1.580040 61.458254 -4.928939 -6.804828 25.456892 7.354549 -0.000001 
50.730198 11.496990 56.695705 -3.106353 -2.185627 9.660877 0.634901 0.249260 -0.234368 5.265665 0.491998 -0.474789 6.910750 0.486277 -0.480649 4.458238 1.033635 -2.674965 4.892873 -1.819360 -2.576051 -5.327653 -64.843077 -6.809588 -59.439400 -132.589463 -62.351602 -0.000002 -0.000001 -0.000002 36.499189 -11.323887 2.276355 -0.000001 0.000003 -3.001770 -4.999921 -7.998730 0.000107 -4.643488 68.208441 6.324840 -61.374564 135.640645 66.713668 0.000000 0.000000 0.000000 33.923630 11.973432 -2.837755 0.000008 -0.000005 3.007770 -5.000120 7.998724 -0.000148 -83.110678 -167.170314 -3.047814 179.999991 0.000005 -0.947001 95.950935 5.945414 0.769685 -0.000002 -0.000002 1.094539 61.696402 3.854231 9.135282 25.457703 -7.354708 0.001123 -82.337910 175.652767 0.274247 -0.000005 -0.000005 -1.244720 -83.053454 -3.281783 0.206039 -0.000004 0.000005 -1.579519 61.456048 -4.927869 -6.807056 25.456890 7.354549 0.000002 
50.724998 11.497986 56.691601 -3.088702 -2.183446 9.661829 0.633393 0.249790 -0.234747 5.262455 0.492523 -0.475796 6.907542 0.486790 -0.481663 4.465728 1.027205 -2.671248 4.893527 -1.807232 -2.573197 -5.328739 -64.838740 -6.810417 -59.428417 -132.589271 -62.351438 -0.000001 -0.000001 0.000001 36.513819 -11.325247 2.277069 -0.000002 0.000002 -3.001770 -4.999920 -7.998729 0.000106 -4.660819 68.207854 6.344192 -61.365104 135.631970 66.715642 -0.000000 0.000000 -0.000000 33.954711 11.975697 -2.840559 0.000007 -0.000005 3.007770 -5.000122 7.998721 -0.000149 -83.129508 -167.173101 -3.050604 179.999991 0.000005 -0.946003 95.950074 5.944568 0.769774 -0.000002 -0.000001 1.094490 61.697106 3.854181 9.134966 25.457705 -7.354707 0.001123 -82.355245 175.656729 0.276176 -0.000005 -0.000003 -1.244070 -83.053926 -3.281829 0.206627 -0.000004 0.000005 -1.578979 61.453848 -4.926744 -6.809471 25.456892 7.354550 0.000001 
50.739700 11.550987 56.702011 -3.071169 -2.181266 9.662778 0.631886 0.250318 -0.235136 5.259255 0.493032 -0.476815 6.904341 0.487287 -0.482690 4.473143 1.020833 -2.667525 4.894065 -1.795105 -2.570338 -5.329580 -64.834293 -6.810996 -59.418336 -132.588588 -62.352421 -0.000001 -0.000001 -0.000001 36.528238 -11.326556 2.277752 -0.000001 0.000001 -3.001770 -4.999917 -7.998726 0.000106 -4.678198 68.207362 6.363602 -61.355712 135.623378 66.717575 0.000001 -0.000000 0.000000 33.985778 11.977874 -2.843382 0.000007 -0.000006 3.007770 -5.000122 7.998726 -0.000148 -83.148489 -167.175683 -3.054596 179.999991 0.000005 -0.946003 95.949323 5.943617 0.768866 -0.000002 -0.000002 1.094429 61.697802 3.854105 9.134602 25.457706 -7.354706 0.001122 -82.372498 175.660840 0.277312 -0.000005 -0.000004 -1.243420 -83.054390 -3.281891 0.207219 -0.000004 0.000005 -1.578428 61.451526 -4.925590 -6.811884 25.456892 7.354550 -0.000000 
50.740601 11.541790 56.704399 -3.053647 -2.179084 9.663721 0.630380 0.250844 -0.235529 5.256065 0.493537 -0.477838 6.901152 0.487779 -0.483718 4.480525 1.014462 -2.663787 4.894556 -1.782989 -2.567491 -5.330368 -64.829949 -6.811512 -59.407353 -132.588411 -62.352052 -0.000003 -0.000001 -0.000001 36.542557 -11.327876 2.278428 -0.000001 0.000002 -3.001769 -4.999923 -7.998732 0.000106 -4.695517 68.206877 6.382945 -61.347099 135.614239 66.720669 -0.000003 0.000000 -0.000000 34.016654 11.980154 -2.846223 0.000005 -0.000006 3.007770 -5.000116 7.998724 -0.000148 -83.167238 -167.178429 -3.057580 179.999991 0.000005 -0.945006 95.948496 5.942596 0.768974 -0.000002 -0.000002 1.094379 61.698499 3.854016 9.134255 25.457708 -7.354708 0.001123 -82.389655 175.664911 0.278431 -0.000004 -0.000003 -1.242760 -83.054868 -3.281962 0.207808 -0.000004 0.000005 -1.577889 61.449115 -4.924499 -6.814214 25.456890 7.354550 -0.000002 
50.716599 11.577694 56.707703 -3.036086 -2.176903 9.664666 0.628875 0.251372 -0.235915 5.252856 0.494050 -0.478854 6.897951 0.488280 -0.484740 4.487956 1.008082 -2.660060 4.895124 -1.770871 -2.564638 -5.331252 -64.825503 -6.812146 -59.397292 -132.587714 -62.353152 -0.000001 0.000000 0.000001 36.556976 -11.329181 2.279094 0.000001 0.000003 -3.001771 -4.999917 -7.998727 0.000106 -4.712876 68.206283 6.402321 -61.337701 135.605647 66.722704 -0.000002 -0.000000 -0.000000 34.047731 11.982315 -2.849024 0.000006 -0.000006 3.007770 -5.000119 7.998724 -0.000148 -83.185974 -167.181188 -3.060356 179.999991 0.000005 -0.945006 95.947738 5.941646 0.768067 -0.000002 -0.000003 1.094330 61.699100 3.853959 9.133879 25.457705 -7.354707 0.001122 -82.406895 175.669050 0.279168 -0.000005 -0.000003 -1.242110 -83.055435 -3.281978 0.208396 -0.000004 0.000005 -1.577340 61.446895 -4.923332 -6.816617 25.456894 7.354547 -0.000000 
50.724998 11.581593 56.710899 -3.018388 -2.174722 9.665613 0.627361 0.251904 -0.236288 5.249636 0.494584 -0.479858 6.894734 0.488803 -0.485749 4.495497 1.001621 -2.656345 4.895852 -1.758733 -2.561785 -5.332442 -64.821152 -6.813117 -59.386200 -132.587468 -62.352899 0.000000 -0.000001 -0.000000 36.571818 -11.330587 2.279863 0.000001 0.000000 -3.001770 -4.999922 -7.998730 0.000105 -4.730225 68.205798 6.421696 -61.328228 135.596986 66.724671 0.000000 0.000000 -0.000000 34.078925 11.984620 -2.851865 0.000006 -0.000006 3.007770 -5.000121 7.998724 -0.000148 -83.204927 -167.183852 -3.063560 179.999991 0.000005 -0.943995 95.946891 5.940805 0.768155 -0.000002 -0.000002 1.094279 61.699899 3.853919 9.133421 25.457705 -7.354707 0.001122 -82.424366 175.672998 0.281294 -0.000005 -0.000003 -1.241460 -83.055893 -3.282025 0.208883 -0.000004 0.000006 -1.576808 61.444594 -4.922221 -6.818942 25.456892 7.354552 -0.000001 
